Coordinates
version=1
nRows=16
nColumns=22
inDegrees=yes

Units are S.I. units (second, meters, Newtons, ...)
If the header above contains a line with 'inDegrees', this indicates whether rotational values are in degrees (yes) or radians (no).

endheader
time	pelvis_tilt	pelvis_list	pelvis_rotation	pelvis_tx	pelvis_ty	pelvis_tz	hip_flexion_r	hip_adduction_r	hip_rotation_r	knee_angle_r	ankle_angle_r	subtalar_angle_r	hip_flexion_l	hip_adduction_l	hip_rotation_l	knee_angle_l	ankle_angle_l	subtalar_angle_l	lumbar_extension	lumbar_bending	lumbar_rotation
      0.01000000	     -0.12683449	      1.54974415	    174.56485572	      0.12131224	      1.08444251	      1.18218672	     -3.67233051	      2.48828576	      2.11004488	     -7.30501789	     11.10067018	     -3.92412325	     -2.30319145	      0.49231483	     -4.44985137	    -10.97659109	     13.66814538	     -3.42445607	     -1.92353901	     -1.54268879	     -5.39990802
      0.02000000	     -0.13151269	      1.55047491	    174.56345985	      0.12124983	      1.08443604	      1.18226425	     -3.67624012	      2.48300698	      2.09078435	     -7.31290483	     11.11847945	     -3.91482256	     -2.30132282	      0.49596909	     -4.45488565	    -10.99718673	     13.68810196	     -3.42317775	     -1.93990437	     -1.54765003	     -5.39011377
      0.03000000	     -0.12804192	      1.55382430	    174.55978142	      0.12115866	      1.08442736	      1.18235825	     -3.67771325	      2.47972258	      2.09029374	     -7.31227166	     11.12009829	     -3.91317719	     -2.30148521	      0.49874674	     -4.45198681	    -11.00051646	     13.68959617	     -3.42303751	     -1.94386917	     -1.54529632	     -5.38985779
      0.04000000	     -0.12370177	      1.55774816	    174.55922832	      0.12105628	      1.08441673	      1.18244615	     -3.67881191	      2.47848667	      2.09036744	     -7.31285366	     11.12023779	     -3.91303937	     -2.30218791	      0.49960520	     -4.45164901	    -11.00142585	     13.68973140	     -3.42304059	     -1.94590437	     -1.54693344	     -5.38975964
      0.05000000	     -0.12755404	      1.56169573	    174.56111811	      0.12099206	      1.08441010	      1.18255434	     -3.68690334	      2.47550143	      2.09440935	     -7.31275225	     11.13157615	     -3.90253268	     -2.29802058	      0.50270869	     -4.42559403	    -11.02698337	     13.70338539	     -3.42535942	     -1.96616338	     -1.54811335	     -5.37065913
      0.06000000	     -0.13308395	      1.56569503	    174.56593866	      0.12092156	      1.08440539	      1.18266279	     -3.69473026	      2.47310496	      2.09549736	     -7.31793900	     11.14504547	     -3.88420318	     -2.30302010	      0.50550436	     -4.40706072	    -11.03693908	     13.72535599	     -3.43009155	     -1.98696800	     -1.54974585	     -5.36500964
      0.07000000	     -0.12964755	      1.56887647	    174.56846957	      0.12084117	      1.08439166	      1.18276884	     -3.69509707	      2.47067543	      2.09518151	     -7.31849851	     11.14652376	     -3.88137025	     -2.30307840	      0.50790560	     -4.40544302	    -11.03732066	     13.72694938	     -3.43071731	     -1.99444404	     -1.54892059	     -5.36344481
      0.08000000	     -0.13530776	      1.57125285	    174.57462132	      0.12079018	      1.08438815	      1.18286774	     -3.69770502	      2.46795071	      2.09579110	     -7.33162301	     11.15592067	     -3.86948938	     -2.30375384	      0.51139053	     -4.38593017	    -11.05301764	     13.73609831	     -3.43451767	     -2.01465625	     -1.55358560	     -5.35625618
      0.09000000	     -0.13264167	      1.57345566	    174.58167244	      0.12071556	      1.08437238	      1.18298289	     -3.69749306	      2.46468835	      2.09655477	     -7.33496814	     11.15793731	     -3.86761874	     -2.30381981	      0.51476247	     -4.38446534	    -11.05286610	     13.73796204	     -3.43528811	     -2.02047727	     -1.55158724	     -5.35513511
      0.10000000	     -0.14054683	      1.57263007	    174.59700539	      0.12069629	      1.08436413	      1.18309338	     -3.69319507	      2.45963248	      2.09483217	     -7.36322744	     11.17736834	     -3.85578175	     -2.30300132	      0.52132724	     -4.35283992	    -11.07119450	     13.75136462	     -3.44188910	     -2.04649694	     -1.55969900	     -5.36149918
      0.11000000	     -0.14301064	      1.56460469	    174.63517126	      0.12063094	      1.08433903	      1.18326910	     -3.68957525	      2.44510122	      2.03972383	     -7.38282338	     11.22242965	     -3.82438085	     -2.30262727	      0.53734503	     -4.30253976	    -11.07531307	     13.76850970	     -3.46182305	     -2.05901743	     -1.56661271	     -5.39718931
      0.12000000	     -0.14465025	      1.56496921	    174.65716450	      0.12059499	      1.08432228	      1.18339730	     -3.68203543	      2.44164881	      2.04318601	     -7.40707650	     11.22575001	     -3.81827591	     -2.29709783	      0.54142442	     -4.27976160	    -11.08873966	     13.76920920	     -3.46662290	     -2.07366222	     -1.57098118	     -5.40602836
      0.13000000	     -0.13658061	      1.55569693	    174.70988782	      0.12054089	      1.08427438	      1.18361351	     -3.66164972	      2.42643224	      1.97993526	     -7.43718312	     11.27363211	     -3.79852427	     -2.27773821	      0.55813353	     -4.20690689	    -11.10542684	     13.78896964	     -3.48890428	     -2.07628541	     -1.57508889	     -5.45514581
      0.14000000	     -0.12326982	      1.54907185	    174.76403840	      0.12049200	      1.08422357	      1.18381909	     -3.63318573	      2.41562427	      1.92796407	     -7.47261647	     11.30236086	     -3.77794745	     -2.24879186	      0.56961836	     -4.14226440	    -11.12811711	     13.79921358	     -3.51192781	     -2.07262634	     -1.58263724	     -5.49678053
      0.15000000	     -0.10990833	      1.54245661	    174.81457783	      0.12045024	      1.08416784	      1.18403867	     -3.60104869	      2.40324445	      1.88353691	     -7.51369693	     11.33913700	     -3.76025715	     -2.21708957	      0.58243127	     -4.08112187	    -11.15576591	     13.81791017	     -3.53230468	     -2.07364310	     -1.58729710	     -5.53063501
      0.16000000	     -0.09465477	      1.53439145	    174.87016050	      0.12039448	      1.08410456	      1.18427227	     -3.56307505	      2.38866118	      1.83171228	     -7.56393146	     11.37837729	     -3.74020130	     -2.17993911	      0.59645418	     -4.01583580	    -11.19089458	     13.83739934	     -3.55169888	     -2.07140031	     -1.59438514	     -5.56394624
